<svg width="32" height="25" viewBox="0 0 32 25" fill="none" xmlns="http://www.w3.org/2000/svg">
<g clip-path="url(#clip0_2_16)">
<path d="M15.5045 18.62H16.6253C22.8034 18.62 26.9282 14.4256 26.9282 8.02588V5.54313C26.9282 2.55449 22.5563 0.547882 16.0659 0.547882C9.57552 0.547882 5.20367 2.55449 5.20367 5.54313V8.02588C5.20367 14.2428 9.31629 18.62 15.5045 18.62ZM16.0659 8.38233C11.0946 8.38233 7.35972 7.12463 7.35972 5.54313C7.35972 3.96937 11.0924 2.70392 16.0659 2.70392C21.0515 2.70392 24.7821 3.96937 24.7821 5.54313C24.7821 7.12463 21.0494 8.38233 16.0659 8.38233ZM25.5201 13.1496H26.5579C29.3174 13.1496 30.9789 11.6957 30.9789 9.28915C30.9789 6.89901 29.3031 5.43529 26.5579 5.43529H25.6688V7.54007H26.5579C28.026 7.54007 28.8642 8.18693 28.8642 9.28915C28.8642 10.3858 28.0239 11.0448 26.5579 11.0448H25.5201V13.1496ZM16.0012 24.516C25.3774 24.516 31.9901 21.8369 31.9901 17.912C31.9901 16.4369 31.0302 15.1344 29.3237 14.0816C28.5634 14.4165 27.7131 14.6053 26.7497 14.636C24.7815 18.0614 21.1826 20.1086 16.6253 20.1086H15.5045C10.3674 20.1086 6.37964 17.3683 4.6441 13.0756C1.70383 14.2448 0.0098877 15.924 0.0098877 17.912C0.0098877 21.8369 6.63475 24.516 16.0012 24.516Z" fill="url(#paint0_linear_2_16)"/>
</g>
<defs>
<linearGradient id="paint0_linear_2_16" x1="19.864" y1="0.547882" x2="21.9823" y2="24.3427" gradientUnits="userSpaceOnUse">
<stop stop-color="#AE68FC"/>
<stop offset="1" stop-color="#683EBE"/>
</linearGradient>
<clipPath id="clip0_2_16">
<rect width="31.9803" height="24" fill="white" transform="translate(0.0098877 0.515961)"/>
</clipPath>
</defs>
</svg>
